<?xml version="1.0" encoding="UTF-8"?><svg id="Layer_3" xmlns="http://www.w3.org/2000/svg" viewBox="0 0 2000 2000"><defs><style>.cls-1,.cls-2{fill:#fff;}.cls-2{fill-rule:evenodd;}</style></defs><path class="cls-1" d="m1149.5,700.25l-299.2,299.5v299.5h299.2v-299.5h299.2v-299.5h-299.2Z"/><path class="cls-1" d="m551.1,700.25l-299.2,299.5v299.5h299.2v-299.5h299.2v-299.5h-299.2Z"/><path class="cls-1" d="m1607.57,806.25v86.85h-20.28v-40.21h-2.07l-18.88,34.34h-18.21l-18.88-34.34h-2.07v40.21h-20.28v-86.85h20.28l29.02,53.83h2.07l29.02-53.83h20.28Z"/><path class="cls-1" d="m1658.56,806.25c24.89,0,36.91,15.23,37.66,33.11h-20.29c-2.15-9.93-6.47-12.68-17.37-12.68-11.92,0-19.25,2.46-19.25,22.99s7.33,22.99,19.25,22.99c10.9,0,15.22-2.65,17.37-12.68h20.29c-.75,17.88-12.77,33.11-37.66,33.11-28.92,0-39.53-21.76-39.53-43.43s10.61-43.43,39.53-43.43Z"/><path class="cls-1" d="m1730.87,846.18h16.44v12.3h-37.19v-12.3l13.99-10.22c7.51-5.39,11.83-8.33,11.83-12.68,0-2.65-.47-4.73-6.85-4.73s-6.76,2.27-6.76,5.39h-12.21c0-9.75,4.32-17.6,18.87-17.6s19.07,7.95,19.07,16.84c0,6.81-1.79,11.35-9.3,17.12l-7.98,5.87h.09Z"/><path class="cls-2" d="m1448.9,1299.75v-299.5h299.2v299.5h-299.2Zm115.28-158.39v-22.39h51.38v-27.63h-78.98v117.45h27.6v-39.79h41.29v-27.63h-41.29Zm68.42.08h27.5v67.44h-27.5v-67.44Zm27.5-49.55h-27.5v27.53h27.5v-27.53Z"/></svg>