<?xml version="1.0" encoding="UTF-8"?><svg id="Layer_1" xmlns="http://www.w3.org/2000/svg" viewBox="0 0 2000 2000"><defs><style>.cls-1,.cls-2{fill:#fff;}.cls-2{fill-rule:evenodd;}</style></defs><path class="cls-1" d="m887.48,751.87l-246.29,248.13v248.13h246.29v-248.13h246.29v-248.13h-246.29Z"/><path class="cls-1" d="m394.9,751.87l-246.29,248.13v248.13h246.29v-248.13h246.29v-248.13h-246.29Z"/><path class="cls-2" d="m1133.77,1000h717.61v248.13h-717.61v-248.13Zm100.26,116.49v-18.55h42.29v-22.89h-65.02v97.3h22.72v-32.96h33.98v-22.89h-33.98Zm56.6-41.55h22.72v97.3h-22.72v-97.3Zm123.62,97.3v-97.3h-22.62v54.06h-2.32l-37.55-54.06h-22.73v97.3h22.73v-54.06h2.31l37.46,54.06h22.72Zm74.27-15.05h-34.19l-4.31,15.05h-24.4l28.51-97.3h34.62l28.5,97.3h-24.4l-4.31-15.05Zm-6.2-22.9l-9.68-33.92h-2.32l-9.68,33.92h21.67Zm131.72,37.95v-97.3h-22.63v54.06h-2.31l-37.56-54.06h-22.72v97.3h22.72v-54.06h2.32l37.45,54.06h22.73Zm57.12-97.3c27.89,0,41.35,17.07,42.2,37.1h-22.73c-2.41-11.13-7.26-14.2-19.46-14.2-13.36,0-21.56,2.76-21.56,25.76s8.2,25.76,21.56,25.76c12.2,0,17.05-2.97,19.46-14.2h22.73c-.84,20.03-14.31,37.1-42.2,37.1-32.4,0-44.29-24.38-44.29-48.65s11.89-48.65,44.29-48.65Zm74.91,37.2v-14.31h45.13v-22.89h-65.02v97.3h65.02v-22.9h-45.13v-14.31h36.61v-22.89h-36.61Z"/><path class="cls-1" d="m1325.55,820.87v97.3h-22.72v-45.05h-2.31l-21.15,38.48h-20.41l-21.15-38.48h-2.32v45.05h-22.72v-97.3h22.72l32.51,60.31h2.31l32.51-60.31h22.72Z"/><path class="cls-1" d="m1382.68,820.87c27.88,0,41.34,17.07,42.18,37.1h-22.72c-2.42-11.13-7.26-14.2-19.46-14.2-13.36,0-21.57,2.76-21.57,25.76s8.21,25.76,21.57,25.76c12.2,0,17.04-2.97,19.46-14.2h22.72c-.84,20.03-14.31,37.1-42.18,37.1-32.41,0-44.29-24.38-44.29-48.65s11.88-48.65,44.29-48.65Z"/><path class="cls-1" d="m1463.7,865.6h18.41v13.78h-41.66v-13.78l15.67-11.45c8.42-6.04,13.26-9.33,13.26-14.2,0-2.97-.52-5.3-7.68-5.3s-7.57,2.54-7.57,6.04h-13.68c0-10.92,4.85-19.71,21.15-19.71s21.35,8.9,21.35,18.87c0,7.63-1.99,12.72-10.42,19.18l-8.94,6.57h.1Z"/></svg>