<?xml version="1.0" encoding="utf-8"?>
<!-- Generator: Adobe Illustrator 27.5.0, SVG Export Plug-In . SVG Version: 6.00 Build 0)  -->
<svg version="1.1" id="Layer_1" xmlns="http://www.w3.org/2000/svg" xmlns:xlink="http://www.w3.org/1999/xlink" x="0px" y="0px"
	 viewBox="0 0 2001 2001" style="enable-background:new 0 0 2001 2001;" xml:space="preserve">
<style type="text/css">
	.st0{fill:#FFFFFF;}
	.st1{fill:#1D1D1D;}
	.st2{fill-rule:evenodd;clip-rule:evenodd;fill:#1D1D1D;}
</style>
<rect class="st0" width="2001" height="2001"/>
<g>
	<path class="st1" d="M888,752.4l-246.3,248.1v248.1H888v-248.1h246.3V752.4L888,752.4L888,752.4z"/>
	<path class="st1" d="M395.4,752.4l-246.3,248.1v248.1h246.3v-248.1h246.3V752.4L395.4,752.4L395.4,752.4z"/>
	<path class="st2" d="M1134.3,1000.5h717.6v248.1h-717.6V1000.5L1134.3,1000.5z M1234.5,1117v-18.6h42.3v-22.9h-65v97.3h22.7v-33h34
		V1117L1234.5,1117L1234.5,1117z M1291.1,1075.4h22.7v97.3h-22.7V1075.4z M1414.8,1172.7v-97.3h-22.6v54.1h-2.3l-37.6-54.1h-22.7
		v97.3h22.7v-54.1h2.3l37.5,54.1H1414.8z M1489,1157.7h-34.2l-4.3,15.1h-24.4l28.5-97.3h34.6l28.5,97.3h-24.4L1489,1157.7
		L1489,1157.7z M1482.8,1134.8l-9.7-33.9h-2.3l-9.7,33.9H1482.8L1482.8,1134.8z M1614.5,1172.7v-97.3h-22.6v54.1h-2.3l-37.6-54.1
		h-22.7v97.3h22.7v-54.1h2.3l37.4,54.1H1614.5L1614.5,1172.7z M1671.7,1075.4c27.9,0,41.3,17.1,42.2,37.1h-22.7
		c-2.4-11.1-7.3-14.2-19.5-14.2c-13.4,0-21.6,2.8-21.6,25.8s8.2,25.8,21.6,25.8c12.2,0,17.1-3,19.5-14.2h22.7
		c-0.8,20-14.3,37.1-42.2,37.1c-32.4,0-44.3-24.4-44.3-48.7S1639.3,1075.5,1671.7,1075.4L1671.7,1075.4z M1746.6,1112.6v-14.3h45.1
		v-22.9h-65v97.3h65v-22.9h-45.1v-14.3h36.6v-22.9L1746.6,1112.6L1746.6,1112.6z"/>
	<path class="st1" d="M1326.1,821.4v97.3h-22.7v-45h-2.3l-21.2,38.5h-20.4l-21.2-38.5h-2.3v45h-22.7v-97.3h22.7l32.5,60.3h2.3
		l32.5-60.3H1326.1L1326.1,821.4z"/>
	<path class="st1" d="M1383.2,821.4c27.9,0,41.3,17.1,42.2,37.1h-22.7c-2.4-11.1-7.3-14.2-19.5-14.2c-13.4,0-21.6,2.8-21.6,25.8
		s8.2,25.8,21.6,25.8c12.2,0,17-3,19.5-14.2h22.7c-0.8,20-14.3,37.1-42.2,37.1c-32.4,0-44.3-24.4-44.3-48.7
		S1350.8,821.4,1383.2,821.4L1383.2,821.4z"/>
	<path class="st1" d="M1464.2,866.1h18.4v13.8h-41.7v-13.8l15.7-11.5c8.4-6,13.3-9.3,13.3-14.2c0-3-0.5-5.3-7.7-5.3s-7.6,2.5-7.6,6
		h-13.7c0-10.9,4.8-19.7,21.2-19.7s21.3,8.9,21.3,18.9c0,7.6-2,12.7-10.4,19.2l-8.9,6.6L1464.2,866.1L1464.2,866.1z"/>
</g>
</svg>
