<?xml version="1.0" encoding="utf-8"?>
<!-- Generator: Adobe Illustrator 27.5.0, SVG Export Plug-In . SVG Version: 6.00 Build 0)  -->
<svg version="1.1" id="Layer_1" xmlns="http://www.w3.org/2000/svg" xmlns:xlink="http://www.w3.org/1999/xlink" x="0px" y="0px"
	 viewBox="0 0 2001 2001" style="enable-background:new 0 0 2001 2001;" xml:space="preserve">
<style type="text/css">
	.st0{fill:#FFFFFF;}
	.st1{fill:#1D1D1D;}
	.st2{fill-rule:evenodd;clip-rule:evenodd;fill:#1D1D1D;}
</style>
<rect class="st0" width="2001" height="2001"/>
<g>
	<path class="st1" d="M1150,700.8l-299.2,299.5v299.5H1150v-299.5h299.2V700.8H1150z"/>
	<path class="st1" d="M551.6,700.8l-299.2,299.5v299.5h299.2v-299.5h299.2V700.8H551.6z"/>
	<path class="st1" d="M1608.1,806.8v86.8h-20.3v-40.2h-2.1l-18.9,34.3h-18.2l-18.9-34.3h-2.1v40.2h-20.3v-86.8h20.3l29,53.8h2.1
		l29-53.8H1608.1L1608.1,806.8z"/>
	<path class="st1" d="M1659.1,806.8c24.9,0,36.9,15.2,37.7,33.1h-20.3c-2.2-9.9-6.5-12.7-17.4-12.7c-11.9,0-19.2,2.5-19.2,23
		s7.3,23,19.2,23c10.9,0,15.2-2.7,17.4-12.7h20.3c-0.8,17.9-12.8,33.1-37.7,33.1c-28.9,0-39.5-21.8-39.5-43.4
		S1630.1,806.7,1659.1,806.8L1659.1,806.8z"/>
	<path class="st1" d="M1731.4,846.7h16.4V859h-37.2v-12.3l14-10.2c7.5-5.4,11.8-8.3,11.8-12.7c0-2.7-0.5-4.7-6.8-4.7
		s-6.8,2.3-6.8,5.4h-12.2c0-9.8,4.3-17.6,18.9-17.6s19.1,8,19.1,16.8c0,6.8-1.8,11.3-9.3,17.1L1731.4,846.7L1731.4,846.7
		L1731.4,846.7z"/>
	<path class="st2" d="M1449.4,1300.2v-299.5h299.2v299.5H1449.4L1449.4,1300.2z M1564.7,1141.9v-22.4h51.4v-27.6h-79v117.4h27.6
		v-39.8h41.3v-27.6L1564.7,1141.9L1564.7,1141.9z M1633.1,1141.9h27.5v67.4h-27.5V1141.9z M1660.6,1092.4h-27.5v27.5h27.5V1092.4z"
		/>
</g>
</svg>
